# xmcd
#
# Track frame offsets: 
#        150
#        13410
#        28037
#        44045
#        58627
#        71700
#        86597
#        100297
#        114230
#        129590
#        144060
#        157215
#        169447
#        182822
#        195840
#        208687
#        222047
#        235885
#        248027
#        263187
#        278002
#        292002
#        307942
#        321422
#
# Disc length: 4477 seconds
#
# Revision: 6
# Processed by: cddbd v1.5.2PL0 Copyright (c) Steve Scherf et al.
# Submitted via: ExactAudioCopy v0.95b4
#
DISCID=69117b18
DTITLE=Various Artist - Folks, He Sure Do Pull Some Bow!: Vintage Fiddle Musi
DTITLE=c 1927-1935
DYEAR=2001
DGENRE=Good-Timey
TTITLE0=Memphis Jug Band - Ruckus Juice and Chittlin' [1934]
TTITLE1=Walter Jacobs and Lonnie Carter - The Jazz Fiddler [1930]
TTITLE2="Peg Leg" Howell and His Gang - Moanin' and Groanin' Blues [1927
TTITLE2=]
TTITLE3=Clifford Hayes' Louisville Stompers - Dance Hall Shuffle [1929
TTITLE3=]
TTITLE4=Banjo Ikey Robinson and His Bull Fiddle Band - My Four Reasons [
TTITLE4=1929]
TTITLE5=Joe Williams' Washboard Blues Singers - Wild Cow Blues [1935]
TTITLE6=Tennessee Chocolate Drops (Tennessee Trio) - Knox County Stomp
TTITLE6=[1930]
TTITLE7=State Street Boys - Rustlin' Man [1935]
TTITLE8=Alec Johnson - Sister Maud Mule [1928]
TTITLE9=Georgia Yellow Hammers - G Rag [1927]
TTITLE10=Peetie Wheatstraw and His Blue Blowers - Throw Me in the Alley 
TTITLE10=[1934]
TTITLE11=Dixieland Jug Blowers - If You Can't Make It Easy, Sweet Mama
TTITLE11=[1927]
TTITLE12=Frank Stokes - Bunker Hill Blues [1929]
TTITLE13=James Cole's String Band - I Got a Gal [1928]
TTITLE14=State Street Boys - Sweet to Mama [1935]
TTITLE15=South Memphis Jug Band - Doctor Medicine [1933]
TTITLE16=Abrew's Portuguese Instrumental Trio - Cabo Verdranos Peça No
TTITLE16=ve [1931]
TTITLE17=Joe Williams' Washboard Blues Singers - Worried Man Blues [19
TTITLE17=35]
TTITLE18=Henry Williams and Eddie Anthony - Georgia Crawl [1928]
TTITLE19=Bo Chatman - Good Old Turnip Greens [1928]
TTITLE20=Blue Boys - Memphis Stomp [1928]
TTITLE21=Bubbling-Over Five - Get Up off That Jazzophone [1929]
TTITLE22=Alabama Rascals - Rukus Juice Shuffle [1932]
TTITLE23=Mississippi Sheiks - Lazy Lazy River [1931]
EXTD=Compilation produced by Marshall Wyatt.\nCD: Old Hat Records CD-1
EXTD=003 (2001-03-27), UPC 670725100325.
EXTT0=
EXTT1=
EXTT2=
EXTT3=
EXTT4=
EXTT5=
EXTT6=
EXTT7=
EXTT8=
EXTT9=
EXTT10=
EXTT11=
EXTT12=
EXTT13=
EXTT14=
EXTT15=
EXTT16=
EXTT17=
EXTT18=
EXTT19=
EXTT20=
EXTT21=
EXTT22=
EXTT23=
PLAYORDER=
